<?xml version="1.0" standalone="no"?>
<!DOCTYPE svg PUBLIC "-//W3C//DTD SVG 20010904//EN"
 "http://www.w3.org/TR/2001/REC-SVG-20010904/DTD/svg10.dtd">
<svg version="1.0" xmlns="http://www.w3.org/2000/svg"
 width="473.000000pt" height="473.000000pt" viewBox="0 0 473.000000 473.000000"
 preserveAspectRatio="xMidYMid meet">
<metadata>
Created by potrace 1.14, written by Peter Selinger 2001-2017
</metadata>
<g transform="translate(0.000000,473.000000) scale(0.100000,-0.100000)"
fill="#000000" stroke="none">
<path d="M3425 4706 c-34 -15 -85 -70 -85 -92 0 -12 -41 -14 -254 -14 -218 0
-257 -2 -270 -16 -14 -13 -16 -54 -16 -296 l0 -280 -22 6 c-50 14 -252 46
-291 46 -84 0 -87 3 -87 85 l0 74 43 23 c132 72 104 275 -44 307 -120 26 -230
-84 -199 -199 13 -48 63 -108 96 -116 23 -6 24 -10 24 -84 0 -87 -2 -90 -75
-90 -40 0 -242 -32 -292 -46 l-23 -6 0 134 c0 91 -4 138 -12 146 -9 9 -73 12
-225 12 l-213 0 -11 28 c-15 40 -47 70 -95 88 -143 54 -278 -102 -203 -235 66
-117 237 -115 293 4 l17 35 184 0 185 0 0 -118 0 -118 -82 -33 c-356 -143
-671 -430 -839 -766 -33 -66 -73 -158 -89 -205 l-29 -85 -296 -3 -295 -2 0
225 c0 188 2 225 14 225 23 0 78 51 92 87 48 113 -30 233 -151 233 -121 0
-199 -120 -151 -233 14 -36 69 -87 92 -87 12 0 14 -41 14 -253 0 -233 1 -255
18 -270 16 -15 54 -17 331 -17 293 0 312 -1 307 -17 -15 -52 -28 -152 -33
-260 l-6 -123 -118 0 -118 0 -23 43 c-72 132 -275 104 -307 -44 -26 -120 84
-230 199 -199 48 13 108 63 116 96 6 24 8 24 135 24 l129 0 0 -34 c0 -45 27
-185 51 -267 10 -36 19 -71 19 -77 0 -8 -60 -12 -197 -14 l-198 -3 -3 -223 -2
-223 -28 -10 c-40 -15 -70 -47 -88 -95 -54 -143 102 -278 235 -203 117 66 115
237 -4 293 l-35 17 0 184 0 185 178 0 177 0 46 -98 c126 -262 319 -483 570
-651 82 -54 259 -144 321 -163 l38 -11 0 -354 0 -353 -225 0 c-188 0 -225 2
-225 14 0 23 -51 78 -87 92 -113 48 -233 -30 -233 -151 0 -121 120 -199 233
-151 36 14 87 69 87 92 0 12 41 14 253 14 233 0 255 1 270 18 15 17 17 58 17
384 l0 365 53 -14 c75 -20 233 -43 295 -43 l52 0 0 -164 0 -165 -42 -23 c-133
-72 -105 -275 43 -307 120 -26 230 84 199 199 -13 48 -63 108 -96 116 l-24 6
0 168 0 167 93 7 c50 3 134 15 186 26 52 11 98 20 103 20 4 0 8 -96 8 -214 0
-118 3 -221 6 -230 5 -14 35 -16 225 -16 l219 0 11 -28 c15 -40 47 -70 95 -88
143 -54 278 102 203 235 -66 117 -237 115 -293 -4 l-17 -35 -185 0 -184 0 2
206 3 206 60 23 c369 138 694 438 872 802 l45 93 324 0 324 0 0 -225 c0 -188
-2 -225 -14 -225 -23 0 -78 -51 -92 -87 -48 -113 30 -233 151 -233 121 0 199
120 151 233 -14 36 -69 87 -92 87 -12 0 -14 41 -14 253 0 233 -1 255 -18 270
-17 15 -56 17 -354 17 l-336 0 23 74 c21 69 51 222 57 291 l3 30 122 3 121 3
24 -43 c72 -133 275 -105 307 43 26 120 -84 230 -199 199 -48 -13 -108 -63
-116 -96 -6 -24 -8 -24 -129 -24 l-122 0 -6 118 c-6 104 -19 204 -33 255 -5
16 7 17 163 17 118 0 173 4 181 12 9 9 12 73 12 225 l0 213 28 11 c40 15 70
47 88 95 54 143 -102 278 -235 203 -117 -66 -115 -237 4 -293 l35 -17 0 -184
0 -185 -148 0 -149 0 -27 83 c-145 433 -479 794 -901 974 l-100 42 -3 266 -2
265 225 0 c188 0 225 -2 225 -14 0 -23 51 -78 87 -92 113 -48 233 30 233 151
0 121 -123 200 -235 151z m130 -91 c54 -53 16 -145 -60 -145 -49 0 -85 36 -85
85 0 76 92 114 145 60z m-1120 -186 c22 -42 18 -67 -14 -100 -46 -46 -106 -37
-136 21 -18 35 -12 70 18 98 43 39 107 30 132 -19z m-1082 -91 c34 -17 46 -39
47 -80 0 -29 -7 -42 -32 -63 -84 -71 -186 48 -109 126 31 31 59 36 94 17z
m-1118 -783 c54 -53 16 -145 -60 -145 -49 0 -85 36 -85 85 0 76 92 114 145 60z
m4086 -84 c31 -31 36 -59 17 -94 -17 -34 -39 -46 -80 -47 -29 0 -42 7 -63 32
-71 84 48 186 126 109z m-1769 -35 c123 -43 225 -125 299 -238 55 -85 80 -172
86 -295 l6 -103 -82 0 -81 0 0 60 c0 182 -86 327 -238 402 -63 31 -72 33 -177
33 -105 0 -114 -2 -177 -33 -152 -75 -238 -220 -238 -402 l0 -60 -81 0 -82 0
6 108 c10 189 83 333 222 439 157 119 355 152 537 89z m559 -745 l29 -29 0
-280 c0 -314 -8 -369 -75 -507 -185 -385 -658 -548 -1042 -360 -203 100 -357
290 -413 510 -18 69 -20 111 -20 357 l0 280 29 29 29 29 717 0 717 0 29 -29z
m1336 -263 c57 -53 13 -148 -67 -148 -12 0 -35 13 -51 29 -45 45 -37 105 19
136 32 17 69 11 99 -17z m-4046 -7 c46 -46 37 -106 -21 -136 -35 -18 -70 -12
-98 18 -53 57 -13 145 66 147 13 0 37 -13 53 -29z m134 -1053 c71 -84 -48
-186 -126 -109 -31 31 -36 59 -17 94 17 34 39 46 80 47 29 0 42 -7 63 -32z
m4080 -73 c54 -53 16 -145 -60 -145 -49 0 -85 36 -85 85 0 49 36 85 85 85 25
0 44 -8 60 -25z m-1137 -771 c31 -36 29 -79 -7 -115 -31 -31 -59 -36 -94 -17
-34 17 -46 39 -47 80 0 29 7 42 32 63 38 32 81 29 116 -11z m-1067 -104 c27
-15 51 -65 43 -94 -18 -75 -125 -92 -159 -26 -22 43 -19 68 14 101 31 30 67
37 102 19z m-1116 -185 c54 -53 16 -145 -60 -145 -49 0 -85 36 -85 85 0 49 36
85 85 85 25 0 44 -8 60 -25z"/>
<path d="M2281 2488 c-47 -13 -134 -103 -149 -154 -27 -91 -4 -184 60 -251
l31 -32 -27 -106 c-19 -76 -24 -111 -17 -124 18 -33 70 -46 186 -46 116 0 168
13 186 46 7 13 2 48 -17 124 l-27 106 30 32 c71 74 91 176 53 265 -51 119
-180 178 -309 140z m169 -89 c70 -39 99 -134 66 -212 -7 -18 -32 -49 -56 -70
-23 -20 -40 -43 -37 -50 16 -45 49 -208 43 -214 -4 -5 -50 -8 -101 -8 -51 0
-97 3 -101 8 -6 6 27 169 43 214 3 7 -14 30 -37 50 -54 49 -70 81 -70 140 0
67 39 128 100 155 33 15 112 8 150 -13z"/>
</g>
</svg>
